<?xml version="1.0" standalone="no"?>
<!DOCTYPE svg PUBLIC "-//W3C//DTD SVG 20010904//EN"
 "http://www.w3.org/TR/2001/REC-SVG-20010904/DTD/svg10.dtd">
<svg version="1.0" xmlns="http://www.w3.org/2000/svg"
 width="418.000000pt" height="418.000000pt" viewBox="0 0 418.000000 418.000000"
 preserveAspectRatio="xMidYMid meet">
<metadata>
Created by potrace 1.14, written by Peter Selinger 2001-2017
</metadata>
<g transform="translate(0.000000,418.000000) scale(0.100000,-0.100000)"
fill="#000000" stroke="none">
<path d="M2145 4169 c-244 -19 -463 -73 -668 -166 -547 -248 -964 -761 -1121
-1378 -14 -55 -28 -117 -32 -139 -3 -21 -7 -48 -10 -60 -2 -11 -7 -48 -10 -81
-3 -33 -8 -71 -10 -85 -6 -39 -6 -309 1 -365 36 -313 101 -545 216 -781 197
-401 521 -723 921 -914 111 -52 298 -122 360 -134 12 -2 57 -11 98 -19 69 -15
130 -24 205 -33 42 -5 302 -4 350 1 22 2 56 7 75 10 19 3 53 8 75 11 22 3 58
10 80 16 22 5 51 12 63 14 60 11 247 81 347 129 101 49 290 166 342 211 11 10
41 35 65 54 56 46 205 195 248 251 l35 44 -30 -22 c-142 -99 -351 -182 -530
-208 -22 -4 -51 -8 -65 -11 -33 -5 -238 -6 -270 0 -14 3 -47 7 -75 11 -115 14
-292 69 -420 131 -336 160 -629 484 -725 801 -12 39 -28 74 -35 77 -7 2 -32
-9 -55 -25 l-41 -30 -26 21 c-38 30 -71 25 -174 -25 -51 -25 -103 -45 -116
-45 -33 0 -29 -20 5 -21 15 0 36 -3 47 -5 11 -3 36 -7 55 -9 19 -3 51 -8 70
-11 53 -8 141 -6 175 4 27 8 33 6 57 -22 59 -66 32 -141 -60 -167 -102 -29
-211 -2 -266 64 -45 54 -39 61 8 10 55 -61 163 -85 256 -57 57 17 82 46 74 88
-8 49 -39 75 -77 67 -69 -16 -304 4 -414 35 -56 15 -78 34 -41 34 99 2 148 14
232 56 100 50 131 54 171 22 24 -19 29 -20 39 -6 15 21 72 49 81 40 5 -4 5 2
0 13 -4 11 -18 52 -30 90 -19 58 -27 71 -46 74 -13 1 -41 19 -63 38 -33 30
-43 34 -70 28 -73 -17 -110 2 -108 55 1 33 24 76 51 97 22 16 51 23 51 12 0
-5 -6 -9 -13 -9 -20 0 -66 -48 -73 -76 -4 -14 -1 -37 5 -51 11 -23 15 -25 54
-19 67 11 76 9 118 -29 30 -27 46 -34 67 -31 15 2 46 7 69 11 87 14 113 74 74
172 -10 27 -35 87 -54 136 -20 48 -38 104 -42 125 -3 20 -11 55 -16 77 -12 44
-16 244 -7 315 10 70 35 180 53 230 104 295 312 568 561 738 302 204 673 274
1020 192 158 -37 322 -107 447 -190 31 -21 57 -36 57 -33 0 9 -132 134 -209
197 -175 145 -375 260 -585 337 -92 35 -280 85 -351 95 -27 3 -59 8 -70 10
-24 5 -157 14 -235 17 -30 1 -91 -1 -135 -4z"/>
<path d="M2797 3248 c-4 -13 -4 -97 -1 -186 7 -175 3 -192 -42 -192 -46 0 -61
105 -22 155 14 18 17 26 7 23 -32 -10 -52 -101 -35 -155 5 -17 1 -21 -25 -27
-39 -7 -42 -5 -45 39 -4 47 -25 83 -78 133 -30 29 -47 55 -52 78 -3 19 -10 37
-15 40 -5 3 -9 4 -9 2 -1 -2 -3 -38 -7 -80 -5 -76 -4 -80 37 -160 36 -71 39
-83 27 -96 -17 -16 -20 -12 -68 77 -19 34 -39 52 -94 83 -77 44 -118 78 -146
123 -26 42 -24 18 5 -46 13 -30 27 -81 31 -113 7 -65 33 -124 72 -165 38 -40
45 -57 28 -71 -11 -9 -17 -6 -28 22 -24 55 -65 86 -142 104 -39 9 -89 21 -113
27 -24 5 -57 23 -74 39 -46 43 -44 27 2 -22 38 -41 67 -92 85 -149 10 -32 69
-96 113 -123 21 -12 39 -23 40 -24 9 -6 -34 -64 -44 -60 -7 3 -9 -5 -6 -20 7
-37 -14 -54 -61 -50 -23 2 -31 1 -17 -1 31 -6 50 -21 45 -36 -13 -46 -14 -47
-38 -38 -12 5 -52 12 -87 15 -36 4 -82 9 -104 12 -37 5 -38 4 -32 -18 3 -13 6
-26 6 -30 0 -18 68 -40 134 -45 92 -6 100 -8 88 -30 -7 -12 -25 -17 -68 -19
-50 -1 -301 -57 -313 -70 -2 -2 11 -4 30 -4 38 -1 73 -18 145 -70 46 -32 52
-34 126 -32 74 1 78 0 84 -23 9 -36 1 -40 -63 -38 -65 2 -135 -23 -151 -54 -9
-15 -6 -18 20 -20 17 -1 38 -9 47 -17 26 -23 53 -26 116 -16 64 10 75 5 75
-37 0 -32 -28 -43 -111 -40 -59 1 -82 -3 -116 -20 -59 -31 -125 -80 -116 -86
4 -3 42 6 83 19 46 15 107 26 157 29 45 2 91 8 102 14 11 6 27 11 35 11 27 0
18 -29 -13 -45 -34 -17 -69 -60 -101 -125 -12 -25 -35 -57 -51 -72 -16 -15
-29 -30 -29 -34 0 -3 33 23 73 58 116 104 188 138 217 103 10 -12 9 -18 -7
-32 -10 -10 -14 -15 -9 -10 14 10 54 9 61 -3 4 -6 -7 -26 -24 -45 -32 -37 -46
-93 -38 -161 3 -31 -4 -56 -35 -116 l-38 -78 52 53 c29 28 80 74 113 100 33
27 74 71 93 98 28 42 35 48 52 39 19 -10 19 -11 -1 -58 -29 -65 -28 -128 1
-180 23 -40 40 -54 40 -31 0 10 40 67 73 104 10 11 20 31 23 45 10 54 20 75
34 75 8 0 14 -5 13 -12 -2 -7 -6 -37 -9 -67 -6 -52 -5 -57 35 -118 23 -35 47
-82 53 -104 l12 -42 43 127 c23 69 43 145 43 168 0 57 15 62 28 10 8 -32 78
-139 126 -194 1 -1 12 14 25 33 29 42 31 115 7 189 -14 39 -14 50 -4 56 21 14
25 11 50 -28 33 -55 85 -109 126 -134 21 -12 56 -43 80 -68 l42 -46 -30 65
c-23 49 -30 80 -30 125 0 69 -27 137 -60 155 l-22 12 20 20 20 21 39 -30 c58
-46 93 -59 206 -77 16 -3 35 -10 43 -17 25 -20 15 7 -11 31 -14 13 -41 52 -60
86 -33 59 -58 89 -98 117 -15 11 -16 15 -4 31 13 17 16 17 38 3 28 -17 51 -23
184 -42 23 -3 50 -7 60 -9 11 -2 42 -7 69 -10 27 -4 54 -10 60 -13 6 -3 5 0
-2 8 -13 14 -17 16 -51 18 -11 0 -41 19 -66 41 -48 42 -58 46 -142 55 -137 14
-152 70 -16 63 56 -4 75 0 108 18 27 15 50 20 70 17 l30 -6 -39 32 c-47 38
-82 49 -162 50 -43 1 -59 16 -48 45 4 11 23 14 72 13 62 -1 72 2 137 41 38 23
66 42 62 42 -9 0 -67 -28 -117 -57 -19 -11 -44 -19 -55 -18 -11 1 -30 2 -42 3
-25 2 -53 27 -53 48 0 11 16 14 73 14 39 0 78 4 85 9 7 4 -21 6 -64 3 -83 -5
-92 0 -89 46 1 21 7 28 31 33 29 7 26 10 -11 13 -27 1 -33 42 -8 50 10 3 37 4
60 2 70 -5 138 27 165 78 10 18 7 18 -53 13 -35 -4 -91 -11 -124 -17 -81 -13
-83 -13 -96 12 -15 28 5 43 80 58 74 16 95 30 109 79 18 58 58 100 127 132 71
33 63 38 -14 8 -39 -14 -83 -21 -155 -23 -86 -2 -109 -7 -156 -29 -30 -15 -47
-22 -36 -15 53 36 76 64 110 135 21 43 51 95 67 116 l30 38 -33 -21 c-38 -23
-83 -37 -152 -45 -70 -8 -115 -32 -149 -81 -17 -24 -34 -41 -39 -38 -13 9 -9
25 15 58 12 17 28 45 35 61 9 24 9 26 -1 11 -6 -10 -27 -38 -45 -62 -28 -38
-36 -43 -53 -34 -22 12 -25 37 -6 65 33 48 49 75 44 75 -2 0 -21 -24 -42 -54
-34 -50 -38 -53 -61 -42 -57 26 -17 88 114 177 94 64 166 139 149 155 -3 3
-11 -5 -17 -18 -20 -37 -82 -91 -160 -138 -58 -35 -77 -54 -102 -97 -32 -57
-34 -59 -60 -39 -17 12 -16 15 8 42 57 64 79 160 60 262 -9 46 -26 48 -26 2 0
-18 -14 -47 -40 -79 -64 -80 -80 -113 -80 -158 0 -34 -4 -43 -17 -43 -37 0
-47 17 -48 77 -1 49 -7 67 -34 108 -42 63 -49 81 -57 157 -7 72 -9 78 -17 46z
m828 -605 c-11 -3 -29 -14 -41 -24 -11 -11 -59 -35 -105 -55 l-84 -35 -17 21
c-25 31 -24 53 2 45 13 -4 35 2 57 15 21 12 55 25 78 29 46 8 140 12 110 4z"/>
<path d="M1805 2690 c3 -5 25 -18 49 -29 45 -19 80 -58 114 -127 25 -49 40
-62 84 -74 30 -9 31 -8 14 5 -11 8 -25 15 -32 15 -16 0 -56 53 -75 98 -8 17
-17 32 -20 32 -4 0 -10 7 -13 16 -5 14 -1 16 27 11 19 -3 40 -1 48 4 10 7 -3
9 -39 7 -28 -2 -53 -1 -55 2 -2 5 -94 50 -103 50 -3 0 -2 -4 1 -10z"/>
<path d="M3556 2262 c-3 -5 1 -9 9 -9 8 0 12 4 9 9 -3 4 -7 8 -9 8 -2 0 -6 -4
-9 -8z"/>
<path d="M3605 2254 c11 -3 61 -19 110 -34 117 -37 152 -42 161 -27 4 7 4 9 0
6 -4 -4 -55 6 -114 22 -59 16 -123 31 -142 34 -19 2 -26 2 -15 -1z"/>
</g>
</svg>
